{
    "asset" : {
        "generator" : "Khronos glTF Blender I/O v1.1.46",
        "version" : "2.0"
    },
    "scene" : 0,
    "scenes" : [
        {
            "name" : "Scene",
            "nodes" : [
                1
            ]
        }
    ],
    "nodes" : [
        {
            "mesh" : 0,
            "name" : "Cylinder.001",
            "translation" : [
                0,
                0.11323169618844986,
                -0.1890019178390503
            ]
        },
        {
            "children" : [
                0
            ],
            "name" : "Yup2Zup",
            "rotation" : [
                0.7071067690849304,
                0,
                0,
                0.7071067690849304
            ]
        }
    ],
    "animations" : [
        {
            "channels" : [
                {
                    "sampler" : 0,
                    "target" : {
                        "node" : 0,
                        "path" : "translation"
                    }
                },
                {
                    "sampler" : 1,
                    "target" : {
                        "node" : 0,
                        "path" : "rotation"
                    }
                },
                {
                    "sampler" : 2,
                    "target" : {
                        "node" : 0,
                        "path" : "scale"
                    }
                }
            ],
            "name" : "Animation_Cylinder.001",
            "samplers" : [
                {
                    "input" : 8,
                    "interpolation" : "LINEAR",
                    "output" : 9
                },
                {
                    "input" : 8,
                    "interpolation" : "LINEAR",
                    "output" : 10
                },
                {
                    "input" : 8,
                    "interpolation" : "LINEAR",
                    "output" : 11
                }
            ]
        }
    ],
    "materials" : [
        {
            "doubleSided" : true,
            "emissiveFactor" : [
                0,
                0,
                0
            ],
            "name" : "Material.001",
            "pbrMetallicRoughness" : {
                "baseColorFactor" : [
                    0.03741008788347244,
                    0.03741008788347244,
                    0.03741008788347244,
                    1
                ],
                "metallicFactor" : 0,
                "roughnessFactor" : 0.5
            }
        },
        {
            "doubleSided" : true,
            "emissiveFactor" : [
                0,
                0,
                0
            ],
            "name" : "Material.002",
            "pbrMetallicRoughness" : {
                "baseColorFactor" : [
                    0.584078848361969,
                    0.590618908405304,
                    0.5906189680099487,
                    1
                ],
                "metallicFactor" : 0.5476190447807312,
                "roughnessFactor" : 0.8333333134651184
            }
        }
    ],
    "meshes" : [
        {
            "name" : "Cylinder.001",
            "primitives" : [
                {
                    "attributes" : {
                        "POSITION" : 0,
                        "NORMAL" : 1,
                        "TEXCOORD_0" : 2
                    },
                    "indices" : 3,
                    "material" : 0
                },
                {
                    "attributes" : {
                        "POSITION" : 4,
                        "NORMAL" : 5,
                        "TEXCOORD_0" : 6
                    },
                    "indices" : 7,
                    "material" : 1
                }
            ]
        }
    ],
    "accessors" : [
        {
            "bufferView" : 0,
            "componentType" : 5126,
            "count" : 480,
            "max" : [
                0.7183180451393127,
                0.18721266090869904,
                0.18721266090869904
            ],
            "min" : [
                -0.7183180451393127,
                -0.1872127652168274,
                -0.1872127652168274
            ],
            "type" : "VEC3"
        },
        {
            "bufferView" : 1,
            "componentType" : 5126,
            "count" : 480,
            "type" : "VEC3"
        },
        {
            "bufferView" : 2,
            "componentType" : 5126,
            "count" : 480,
            "type" : "VEC2"
        },
        {
            "bufferView" : 3,
            "componentType" : 5123,
            "count" : 744,
            "type" : "SCALAR"
        },
        {
            "bufferView" : 4,
            "componentType" : 5126,
            "count" : 238,
            "max" : [
                0.8661144971847534,
                0.030264928936958313,
                0.030265018343925476
            ],
            "min" : [
                -0.8661144971847534,
                -0.030265063047409058,
                -0.03026510775089264
            ],
            "type" : "VEC3"
        },
        {
            "bufferView" : 5,
            "componentType" : 5126,
            "count" : 238,
            "type" : "VEC3"
        },
        {
            "bufferView" : 6,
            "componentType" : 5126,
            "count" : 238,
            "type" : "VEC2"
        },
        {
            "bufferView" : 7,
            "componentType" : 5123,
            "count" : 372,
            "type" : "SCALAR"
        },
        {
            "bufferView" : 8,
            "componentType" : 5126,
            "count" : 112,
            "max" : [
                4.658333336313565
            ],
            "min" : [
                0.033333336313565574
            ],
            "type" : "SCALAR"
        },
        {
            "bufferView" : 9,
            "componentType" : 5126,
            "count" : 112,
            "type" : "VEC3"
        },
        {
            "bufferView" : 10,
            "componentType" : 5126,
            "count" : 112,
            "type" : "VEC4"
        },
        {
            "bufferView" : 11,
            "componentType" : 5126,
            "count" : 112,
            "type" : "VEC3"
        }
    ],
    "bufferViews" : [
        {
            "buffer" : 0,
            "byteLength" : 5760,
            "byteOffset" : 0
        },
        {
            "buffer" : 0,
            "byteLength" : 5760,
            "byteOffset" : 5760
        },
        {
            "buffer" : 0,
            "byteLength" : 3840,
            "byteOffset" : 11520
        },
        {
            "buffer" : 0,
            "byteLength" : 1488,
            "byteOffset" : 15360
        },
        {
            "buffer" : 0,
            "byteLength" : 2856,
            "byteOffset" : 16848
        },
        {
            "buffer" : 0,
            "byteLength" : 2856,
            "byteOffset" : 19704
        },
        {
            "buffer" : 0,
            "byteLength" : 1904,
            "byteOffset" : 22560
        },
        {
            "buffer" : 0,
            "byteLength" : 744,
            "byteOffset" : 24464
        },
        {
            "buffer" : 0,
            "byteLength" : 448,
            "byteOffset" : 25208
        },
        {
            "buffer" : 0,
            "byteLength" : 1344,
            "byteOffset" : 25656
        },
        {
            "buffer" : 0,
            "byteLength" : 1792,
            "byteOffset" : 27000
        },
        {
            "buffer" : 0,
            "byteLength" : 1344,
            "byteOffset" : 28792
        }
    ],
    "buffers" : [
        {
            "byteLength" : 30136,
            "uri" : "data:application/octet-stream;base64,"
        }
    ]
}
